<?xml version="1.0" encoding="utf-8"?>
<!-- Generator: Adobe Illustrator 22.0.1, SVG Export Plug-In . SVG Version: 6.00 Build 0)  -->
<svg version="1.1" id="Calque_1" xmlns="http://www.w3.org/2000/svg" xmlns:xlink="http://www.w3.org/1999/xlink" x="0px" y="0px"
	 viewBox="0 0 742.1 625.6" style="enable-background:new 0 0 742.1 625.6;" xml:space="preserve">
<g>
	<path d="M185,333.6c66.6,9.9,132.7,19.8,200.3,29.8c-5.7-6.5-10.3-11.9-15.1-17.3c-19.2-21.7-38.4-43.4-57.6-65.2
		c-11.9-13.5-11.3-29.7,1.4-42.4c42.9-42.9,85.8-85.8,128.7-128.7c13.9-13.9,25.7-15.3,42.8-5c0.8-1.9,1.7-3.8,2.5-5.7
		c6.5-16.4,15.4-31.4,26.7-44.9C537,28,565,20,597.9,29.1c63.6,17.7,105.4,79.5,98.5,145.3c-1.7,16.7-3.8,33.5-4.2,50.3
		c-0.7,25.9,5.1,50.6,16,74c1,2.2,2.2,4.5,3.8,6.4c7,8.9,6.7,18.3-1.4,26.4c-25.6,25.7-51.3,51.4-77,77.1
		c-31.3,31.3-62.7,62.7-94,94c-11.4,11.4-21.6,11.1-32.2-1.1c-11.8-13.4-23.6-26.8-35.4-40.1c-3-3.4-5.6-6.4-11.2-7
		c-9.8-1.1-19.4-4.4-29.1-6.9c-85.5-21.5-171.1-43-256.6-64.5c-0.5-0.1-1-0.1-1.9-0.2c-1.9,3.5-3.5,7.4-5.9,10.6
		c-4.3,5.8-8.5,12.1-14,16.8c-9.5,8.1-19.2,5.7-24.1-5.8c-2.5-6-4.3-12.7-4.7-19.2c-1.6-27.5,4.7-53.3,19-76.9
		c3.1-5,7.1-9.8,11.5-13.7c10.4-9.2,21.5-6.5,25.8,6.6c2.7,8.2,3,17.2,4.3,25.9C185.3,329.2,185,331.2,185,333.6z M658.7,258.1
		c-0.5-13-1.9-25.5-1.4-37.9c0.7-17,2.7-33.9,4.2-50.8c5-54.3-31.1-94.9-72.7-107c-17.1-5-32.4-2.3-44.8,11.2
		c-14.3,15.5-23.1,34-29,54.1c-0.9,3.2,0.9,4.5,2.8,6.2c35.7,31.5,71.5,63,107.2,94.6C636.2,238.3,647.4,248.2,658.7,258.1z"/>
	<path d="M96.7,419.7c8.8,18.5,17.3,35.8,25.1,53.4c5.1,11.4,1.2,24.4-8.4,31.9c-9.7,7.5-23.1,7.8-33,0.6
		c-9.8-7.1-13.7-19.9-9.6-31.6c1.2-3.3,2.4-6.6,3.9-9.7C81.8,449.7,89,435.3,96.7,419.7z"/>
	<path d="M135.4,511.1c8.7,18.5,17.3,35.7,25,53.4c5.3,12,0.6,25.5-9.9,32.6c-10.5,7.1-24.2,6.2-33.7-2.2c-8.6-7.6-11.8-19.9-6.8-31
		c6.6-14.9,14-29.4,21-44.1C132.2,517.3,133.5,514.8,135.4,511.1z"/>
	<path d="M55,510.9c8.8,18.8,17.5,36.5,25.4,54.6c4.8,11.1,0.4,23.8-9.4,31c-9.5,7-22.5,7.1-32.2,0.2c-9.9-7-14-19.5-10-31
		c2.1-5.9,4.5-11.8,7.3-17.5C42,536.2,48.2,524.3,55,510.9z"/>
</g>
</svg>
